<svg xmlns="http://www.w3.org/2000/svg" viewBox="-282.6 25.2 726.9 707.7" width="1000" font-family="'Space Grotesk', system-ui, sans-serif">
  <defs>
    <radialGradient id="bg" cx="50%" cy="2%" r="80%">
      <stop offset="0%" stop-color="#122127"/>
      <stop offset="60%" stop-color="#0b1418"/>
      <stop offset="100%" stop-color="#080d0f"/>
    </radialGradient>
    <linearGradient id="stage" x1="0" y1="0" x2="0" y2="1">
      <stop offset="0%" stop-color="#ffe6ad"/><stop offset="100%" stop-color="#d19a3f"/>
    </linearGradient>
    <filter id="glow" x="-40%" y="-60%" width="180%" height="260%">
      <feGaussianBlur stdDeviation="6" result="b"/><feMerge><feMergeNode in="b"/><feMergeNode in="SourceGraphic"/></feMerge>
    </filter>
  </defs>
  <rect x="-282.6" y="25.2" width="726.9" height="707.7" fill="url(#bg)"/>
  <path d="M -67.1 117.2 A 135 135 0 0 1 67.1 117.2" fill="none" stroke="url(#stage)" stroke-width="9" stroke-linecap="round" filter="url(#glow)"/>
  <text x="0" y="87.2" text-anchor="middle" fill="#f3d18a" font-size="13" letter-spacing="6">STAGE</text>
  <text x="158.9" y="162.9" fill="rgba(243,209,138,0.75)" font-size="12" letter-spacing="1.5" dominant-baseline="middle">PIT</text>
  <text x="263.3" y="237.0" fill="rgba(243,209,138,0.75)" font-size="12" letter-spacing="1.5" dominant-baseline="middle">ORCHESTRA</text>
  <text x="296.4" y="423.5" fill="rgba(243,209,138,0.75)" font-size="12" letter-spacing="1.5" dominant-baseline="middle">MEZZANINE</text>
  <text x="328.4" y="566.6" fill="rgba(243,209,138,0.75)" font-size="12" letter-spacing="1.5" dominant-baseline="middle">BALCONY</text>
  <g opacity="0.85"><circle cx="-118.6" cy="167.2" r="7.5" fill="#2f434b" stroke="rgba(159,182,194,0.25)"/><path d="M -121.6 167.4 L -119.3 169.8 L -115.3 164.6" fill="none" stroke="#9db6c2" stroke-width="1.5" stroke-linecap="round" stroke-linejoin="round"/></g>
  <g opacity="0.85"><circle cx="-99.2" cy="179.4" r="7.5" fill="#2f434b" stroke="rgba(159,182,194,0.25)"/><path d="M -102.2 179.6 L -99.9 182.0 L -95.9 176.8" fill="none" stroke="#9db6c2" stroke-width="1.5" stroke-linecap="round" stroke-linejoin="round"/></g>
  <g opacity="0.85"><circle cx="-78.4" cy="189.4" r="7.5" fill="#2f434b" stroke="rgba(159,182,194,0.25)"/><path d="M -81.4 189.6 L -79.1 192.0 L -75.1 186.8" fill="none" stroke="#9db6c2" stroke-width="1.5" stroke-linecap="round" stroke-linejoin="round"/></g>
  <g opacity="0.85"><circle cx="-56.7" cy="197.0" r="7.5" fill="#2f434b" stroke="rgba(159,182,194,0.25)"/><path d="M -59.7 197.2 L -57.4 199.6 L -53.4 194.4" fill="none" stroke="#9db6c2" stroke-width="1.5" stroke-linecap="round" stroke-linejoin="round"/></g>
  <g opacity="0.85"><circle cx="-34.3" cy="202.1" r="7.5" fill="#2f434b" stroke="rgba(159,182,194,0.25)"/><path d="M -37.3 202.3 L -35.0 204.7 L -31.0 199.5" fill="none" stroke="#9db6c2" stroke-width="1.5" stroke-linecap="round" stroke-linejoin="round"/></g>
  <g opacity="0.85"><circle cx="-11.5" cy="204.7" r="7.5" fill="#2f434b" stroke="rgba(159,182,194,0.25)"/><path d="M -14.5 204.9 L -12.2 207.3 L -8.2 202.1" fill="none" stroke="#9db6c2" stroke-width="1.5" stroke-linecap="round" stroke-linejoin="round"/></g>
  <g opacity="0.85"><circle cx="11.5" cy="204.7" r="7.5" fill="#2f434b" stroke="rgba(159,182,194,0.25)"/><path d="M 8.5 204.9 L 10.8 207.3 L 14.8 202.1" fill="none" stroke="#9db6c2" stroke-width="1.5" stroke-linecap="round" stroke-linejoin="round"/></g>
  <g opacity="0.85"><circle cx="34.3" cy="202.1" r="7.5" fill="#2f434b" stroke="rgba(159,182,194,0.25)"/><path d="M 31.3 202.3 L 33.6 204.7 L 37.6 199.5" fill="none" stroke="#9db6c2" stroke-width="1.5" stroke-linecap="round" stroke-linejoin="round"/></g>
  <g opacity="0.85"><circle cx="56.7" cy="197.0" r="7.5" fill="#2f434b" stroke="rgba(159,182,194,0.25)"/><path d="M 53.7 197.2 L 56.0 199.6 L 60.0 194.4" fill="none" stroke="#9db6c2" stroke-width="1.5" stroke-linecap="round" stroke-linejoin="round"/></g>
  <g opacity="0.85"><circle cx="78.4" cy="189.4" r="7.5" fill="#2f434b" stroke="rgba(159,182,194,0.25)"/><path d="M 75.4 189.6 L 77.7 192.0 L 81.7 186.8" fill="none" stroke="#9db6c2" stroke-width="1.5" stroke-linecap="round" stroke-linejoin="round"/></g>
  <g opacity="0.85"><circle cx="99.2" cy="179.4" r="7.5" fill="#2f434b" stroke="rgba(159,182,194,0.25)"/><path d="M 96.2 179.6 L 98.5 182.0 L 102.5 176.8" fill="none" stroke="#9db6c2" stroke-width="1.5" stroke-linecap="round" stroke-linejoin="round"/></g>
  <circle cx="118.6" cy="167.2" r="7.5" fill="#6f909e" fill-opacity="0.9" stroke="rgba(230,240,244,0.18)"/>
  <circle cx="-120.3" cy="197.2" r="7.5" fill="#6f909e" fill-opacity="0.9" stroke="rgba(230,240,244,0.18)"/>
  <circle cx="-100.1" cy="208.2" r="7.5" fill="#6f909e" fill-opacity="0.9" stroke="rgba(230,240,244,0.18)"/>
  <circle cx="-78.9" cy="217.1" r="7.5" fill="#6f909e" fill-opacity="0.9" stroke="rgba(230,240,244,0.18)"/>
  <circle cx="-56.9" cy="223.9" r="7.5" fill="#6f909e" fill-opacity="0.9" stroke="rgba(230,240,244,0.18)"/>
  <circle cx="-34.4" cy="228.4" r="7.5" fill="#6f909e" fill-opacity="0.9" stroke="rgba(230,240,244,0.18)"/>
  <circle cx="-11.5" cy="230.7" r="7.5" fill="#6f909e" fill-opacity="0.9" stroke="rgba(230,240,244,0.18)"/>
  <circle cx="11.5" cy="230.7" r="7.5" fill="#6f909e" fill-opacity="0.9" stroke="rgba(230,240,244,0.18)"/>
  <circle cx="34.4" cy="228.4" r="7.5" fill="#6f909e" fill-opacity="0.9" stroke="rgba(230,240,244,0.18)"/>
  <circle cx="56.9" cy="223.9" r="7.5" fill="#6f909e" fill-opacity="0.9" stroke="rgba(230,240,244,0.18)"/>
  <circle cx="78.9" cy="217.1" r="7.5" fill="#6f909e" fill-opacity="0.9" stroke="rgba(230,240,244,0.18)"/>
  <circle cx="100.1" cy="208.2" r="7.5" fill="#6f909e" fill-opacity="0.9" stroke="rgba(230,240,244,0.18)"/>
  <circle cx="120.3" cy="197.2" r="7.5" fill="#6f909e" fill-opacity="0.9" stroke="rgba(230,240,244,0.18)"/>
  <circle cx="-179.9" cy="213.3" r="7.5" fill="#6f909e" fill-opacity="0.9" stroke="rgba(230,240,244,0.18)"/>
  <circle cx="-161.7" cy="227.4" r="7.5" fill="#6f909e" fill-opacity="0.9" stroke="rgba(230,240,244,0.18)"/>
  <circle cx="-142.4" cy="239.9" r="7.5" fill="#6f909e" fill-opacity="0.9" stroke="rgba(230,240,244,0.18)"/>
  <circle cx="-122.2" cy="250.8" r="7.5" fill="#6f909e" fill-opacity="0.9" stroke="rgba(230,240,244,0.18)"/>
  <circle cx="-101.1" cy="260.0" r="7.5" fill="#6f909e" fill-opacity="0.9" stroke="rgba(230,240,244,0.18)"/>
  <circle cx="-79.4" cy="267.5" r="7.5" fill="#6f909e" fill-opacity="0.9" stroke="rgba(230,240,244,0.18)"/>
  <circle cx="-57.1" cy="273.1" r="7.5" fill="#6f909e" fill-opacity="0.9" stroke="rgba(230,240,244,0.18)"/>
  <circle cx="-34.4" cy="276.9" r="7.5" fill="#6f909e" fill-opacity="0.9" stroke="rgba(230,240,244,0.18)"/>
  <circle cx="-11.5" cy="278.8" r="7.5" fill="#6f909e" fill-opacity="0.9" stroke="rgba(230,240,244,0.18)"/>
  <circle cx="11.5" cy="278.8" r="7.5" fill="#6f909e" fill-opacity="0.9" stroke="rgba(230,240,244,0.18)"/>
  <circle cx="34.4" cy="276.9" r="7.5" fill="#6f909e" fill-opacity="0.9" stroke="rgba(230,240,244,0.18)"/>
  <circle cx="57.1" cy="273.1" r="7.5" fill="#6f909e" fill-opacity="0.9" stroke="rgba(230,240,244,0.18)"/>
  <circle cx="79.4" cy="267.5" r="7.5" fill="#6f909e" fill-opacity="0.9" stroke="rgba(230,240,244,0.18)"/>
  <circle cx="101.1" cy="260.0" r="7.5" fill="#6f909e" fill-opacity="0.9" stroke="rgba(230,240,244,0.18)"/>
  <circle cx="122.2" cy="250.8" r="7.5" fill="#6f909e" fill-opacity="0.9" stroke="rgba(230,240,244,0.18)"/>
  <circle cx="142.4" cy="239.9" r="7.5" fill="#6f909e" fill-opacity="0.9" stroke="rgba(230,240,244,0.18)"/>
  <circle cx="161.7" cy="227.4" r="7.5" fill="#6f909e" fill-opacity="0.9" stroke="rgba(230,240,244,0.18)"/>
  <circle cx="179.9" cy="213.3" r="7.5" fill="#6f909e" fill-opacity="0.9" stroke="rgba(230,240,244,0.18)"/>
  <circle cx="-182.4" cy="244.5" r="7.5" fill="#6f909e" fill-opacity="0.9" stroke="rgba(230,240,244,0.18)"/>
  <circle cx="-163.4" cy="257.5" r="7.5" fill="#6f909e" fill-opacity="0.9" stroke="rgba(230,240,244,0.18)"/>
  <circle cx="-143.6" cy="269.1" r="7.5" fill="#6f909e" fill-opacity="0.9" stroke="rgba(230,240,244,0.18)"/>
  <circle cx="-122.9" cy="279.1" r="7.5" fill="#6f909e" fill-opacity="0.9" stroke="rgba(230,240,244,0.18)"/>
  <circle cx="-101.5" cy="287.6" r="7.5" fill="#6f909e" fill-opacity="0.9" stroke="rgba(230,240,244,0.18)"/>
  <circle cx="-79.6" cy="294.4" r="7.5" fill="#6f909e" fill-opacity="0.9" stroke="rgba(230,240,244,0.18)"/>
  <circle cx="-57.2" cy="299.6" r="7.5" fill="#6f909e" fill-opacity="0.9" stroke="rgba(230,240,244,0.18)"/>
  <circle cx="-34.4" cy="303.1" r="7.5" fill="#6f909e" fill-opacity="0.9" stroke="rgba(230,240,244,0.18)"/>
  <circle cx="-11.5" cy="304.8" r="7.5" fill="#6f909e" fill-opacity="0.9" stroke="rgba(230,240,244,0.18)"/>
  <circle cx="11.5" cy="304.8" r="7.5" fill="#6f909e" fill-opacity="0.9" stroke="rgba(230,240,244,0.18)"/>
  <circle cx="34.4" cy="303.1" r="7.5" fill="#6f909e" fill-opacity="0.9" stroke="rgba(230,240,244,0.18)"/>
  <circle cx="57.2" cy="299.6" r="7.5" fill="#6f909e" fill-opacity="0.9" stroke="rgba(230,240,244,0.18)"/>
  <circle cx="79.6" cy="294.4" r="7.5" fill="#6f909e" fill-opacity="0.9" stroke="rgba(230,240,244,0.18)"/>
  <circle cx="101.5" cy="287.6" r="7.5" fill="#6f909e" fill-opacity="0.9" stroke="rgba(230,240,244,0.18)"/>
  <circle cx="122.9" cy="279.1" r="7.5" fill="#6f909e" fill-opacity="0.9" stroke="rgba(230,240,244,0.18)"/>
  <circle cx="143.6" cy="269.1" r="7.5" fill="#6f909e" fill-opacity="0.9" stroke="rgba(230,240,244,0.18)"/>
  <circle cx="163.4" cy="257.5" r="7.5" fill="#6f909e" fill-opacity="0.9" stroke="rgba(230,240,244,0.18)"/>
  <circle cx="182.4" cy="244.5" r="7.5" fill="#6f909e" fill-opacity="0.9" stroke="rgba(230,240,244,0.18)"/>
  <circle cx="-184.3" cy="274.9" r="7.5" fill="#6f909e" fill-opacity="0.9" stroke="rgba(230,240,244,0.18)"/>
  <circle cx="-164.8" cy="287.1" r="7.5" fill="#6f909e" fill-opacity="0.9" stroke="rgba(230,240,244,0.18)"/>
  <circle cx="-144.5" cy="297.8" r="7.5" fill="#6f909e" fill-opacity="0.9" stroke="rgba(230,240,244,0.18)"/>
  <circle cx="-123.4" cy="307.1" r="7.0" fill="rgba(230,162,58,0.14)" stroke="#e6a23a" stroke-width="2.3"/>
  <circle cx="-101.8" cy="314.9" r="7.5" fill="#6f909e" fill-opacity="0.9" stroke="rgba(230,240,244,0.18)"/>
  <circle cx="-79.7" cy="321.3" r="7.5" fill="#6f909e" fill-opacity="0.9" stroke="rgba(230,240,244,0.18)"/>
  <circle cx="-57.2" cy="326.0" r="7.5" fill="#6f909e" fill-opacity="0.9" stroke="rgba(230,240,244,0.18)"/>
  <circle cx="-34.4" cy="329.2" r="7.5" fill="#6f909e" fill-opacity="0.9" stroke="rgba(230,240,244,0.18)"/>
  <circle cx="-11.5" cy="330.8" r="7.5" fill="#6f909e" fill-opacity="0.9" stroke="rgba(230,240,244,0.18)"/>
  <g><circle cx="11.5" cy="330.8" r="7.5" fill="#ffd27a"/><circle cx="11.5" cy="330.8" r="10.5" fill="none" stroke="#ffd27a" stroke-width="1.5" opacity="0.85"/></g>
  <circle cx="34.4" cy="329.2" r="7.5" fill="#6f909e" fill-opacity="0.9" stroke="rgba(230,240,244,0.18)"/>
  <circle cx="57.2" cy="326.0" r="7.5" fill="#6f909e" fill-opacity="0.9" stroke="rgba(230,240,244,0.18)"/>
  <circle cx="79.7" cy="321.3" r="7.5" fill="#6f909e" fill-opacity="0.9" stroke="rgba(230,240,244,0.18)"/>
  <circle cx="101.8" cy="314.9" r="7.5" fill="#6f909e" fill-opacity="0.9" stroke="rgba(230,240,244,0.18)"/>
  <circle cx="123.4" cy="307.1" r="7.5" fill="#6f909e" fill-opacity="0.9" stroke="rgba(230,240,244,0.18)"/>
  <circle cx="144.5" cy="297.8" r="7.5" fill="#6f909e" fill-opacity="0.9" stroke="rgba(230,240,244,0.18)"/>
  <circle cx="164.8" cy="287.1" r="7.5" fill="#6f909e" fill-opacity="0.9" stroke="rgba(230,240,244,0.18)"/>
  <circle cx="184.3" cy="274.9" r="7.5" fill="#6f909e" fill-opacity="0.9" stroke="rgba(230,240,244,0.18)"/>
  <circle cx="-185.9" cy="304.8" r="7.5" fill="#6f909e" fill-opacity="0.9" stroke="rgba(230,240,244,0.18)"/>
  <circle cx="-165.9" cy="316.1" r="7.5" fill="#6f909e" fill-opacity="0.9" stroke="rgba(230,240,244,0.18)"/>
  <circle cx="-145.2" cy="326.2" r="7.5" fill="#6f909e" fill-opacity="0.9" stroke="rgba(230,240,244,0.18)"/>
  <circle cx="-123.9" cy="334.8" r="7.5" fill="#6f909e" fill-opacity="0.9" stroke="rgba(230,240,244,0.18)"/>
  <circle cx="-102.1" cy="342.1" r="7.5" fill="#6f909e" fill-opacity="0.9" stroke="rgba(230,240,244,0.18)"/>
  <circle cx="-79.8" cy="348.0" r="7.5" fill="#6f909e" fill-opacity="0.9" stroke="rgba(230,240,244,0.18)"/>
  <circle cx="-57.3" cy="352.4" r="7.5" fill="#6f909e" fill-opacity="0.9" stroke="rgba(230,240,244,0.18)"/>
  <circle cx="-34.4" cy="355.3" r="7.5" fill="#6f909e" fill-opacity="0.9" stroke="rgba(230,240,244,0.18)"/>
  <circle cx="-11.5" cy="356.8" r="7.5" fill="#6f909e" fill-opacity="0.9" stroke="rgba(230,240,244,0.18)"/>
  <circle cx="11.5" cy="356.8" r="7.0" fill="rgba(230,162,58,0.14)" stroke="#e6a23a" stroke-width="2.3"/>
  <circle cx="34.4" cy="355.3" r="7.5" fill="#6f909e" fill-opacity="0.9" stroke="rgba(230,240,244,0.18)"/>
  <circle cx="57.3" cy="352.4" r="7.5" fill="#6f909e" fill-opacity="0.9" stroke="rgba(230,240,244,0.18)"/>
  <circle cx="79.8" cy="348.0" r="7.5" fill="#6f909e" fill-opacity="0.9" stroke="rgba(230,240,244,0.18)"/>
  <circle cx="102.1" cy="342.1" r="7.5" fill="#6f909e" fill-opacity="0.9" stroke="rgba(230,240,244,0.18)"/>
  <circle cx="123.9" cy="334.8" r="7.5" fill="#6f909e" fill-opacity="0.9" stroke="rgba(230,240,244,0.18)"/>
  <circle cx="145.2" cy="326.2" r="7.5" fill="#6f909e" fill-opacity="0.9" stroke="rgba(230,240,244,0.18)"/>
  <circle cx="165.9" cy="316.1" r="7.5" fill="#6f909e" fill-opacity="0.9" stroke="rgba(230,240,244,0.18)"/>
  <circle cx="185.9" cy="304.8" r="7.5" fill="#6f909e" fill-opacity="0.9" stroke="rgba(230,240,244,0.18)"/>
  <circle cx="-187.1" cy="334.2" r="7.5" fill="#6f909e" fill-opacity="0.9" stroke="rgba(230,240,244,0.18)"/>
  <circle cx="-166.7" cy="344.8" r="7.5" fill="#6f909e" fill-opacity="0.9" stroke="rgba(230,240,244,0.18)"/>
  <circle cx="-145.7" cy="354.2" r="7.5" fill="#6f909e" fill-opacity="0.9" stroke="rgba(230,240,244,0.18)"/>
  <circle cx="-124.2" cy="362.3" r="7.5" fill="#6f909e" fill-opacity="0.9" stroke="rgba(230,240,244,0.18)"/>
  <circle cx="-102.2" cy="369.1" r="7.5" fill="#6f909e" fill-opacity="0.9" stroke="rgba(230,240,244,0.18)"/>
  <circle cx="-79.9" cy="374.6" r="7.5" fill="#6f909e" fill-opacity="0.9" stroke="rgba(230,240,244,0.18)"/>
  <circle cx="-57.3" cy="378.7" r="7.5" fill="#6f909e" fill-opacity="0.9" stroke="rgba(230,240,244,0.18)"/>
  <circle cx="-34.5" cy="381.4" r="7.5" fill="#6f909e" fill-opacity="0.9" stroke="rgba(230,240,244,0.18)"/>
  <circle cx="-11.5" cy="382.8" r="7.5" fill="#6f909e" fill-opacity="0.9" stroke="rgba(230,240,244,0.18)"/>
  <circle cx="11.5" cy="382.8" r="7.5" fill="#6f909e" fill-opacity="0.9" stroke="rgba(230,240,244,0.18)"/>
  <circle cx="34.5" cy="381.4" r="7.5" fill="#6f909e" fill-opacity="0.9" stroke="rgba(230,240,244,0.18)"/>
  <circle cx="57.3" cy="378.7" r="7.5" fill="#6f909e" fill-opacity="0.9" stroke="rgba(230,240,244,0.18)"/>
  <circle cx="79.9" cy="374.6" r="7.5" fill="#6f909e" fill-opacity="0.9" stroke="rgba(230,240,244,0.18)"/>
  <circle cx="102.2" cy="369.1" r="7.5" fill="#6f909e" fill-opacity="0.9" stroke="rgba(230,240,244,0.18)"/>
  <circle cx="124.2" cy="362.3" r="7.5" fill="#6f909e" fill-opacity="0.9" stroke="rgba(230,240,244,0.18)"/>
  <circle cx="145.7" cy="354.2" r="7.5" fill="#6f909e" fill-opacity="0.9" stroke="rgba(230,240,244,0.18)"/>
  <circle cx="166.7" cy="344.8" r="7.5" fill="#6f909e" fill-opacity="0.9" stroke="rgba(230,240,244,0.18)"/>
  <circle cx="187.1" cy="334.2" r="7.5" fill="#6f909e" fill-opacity="0.9" stroke="rgba(230,240,244,0.18)"/>
  <circle cx="-188.1" cy="363.2" r="7.5" fill="#6f909e" fill-opacity="0.9" stroke="rgba(230,240,244,0.18)"/>
  <circle cx="-167.4" cy="373.2" r="7.5" fill="#6f909e" fill-opacity="0.9" stroke="rgba(230,240,244,0.18)"/>
  <circle cx="-146.2" cy="382.0" r="7.5" fill="#6f909e" fill-opacity="0.9" stroke="rgba(230,240,244,0.18)"/>
  <circle cx="-124.5" cy="389.6" r="7.5" fill="#6f909e" fill-opacity="0.9" stroke="rgba(230,240,244,0.18)"/>
  <circle cx="-102.4" cy="396.0" r="7.5" fill="#6f909e" fill-opacity="0.9" stroke="rgba(230,240,244,0.18)"/>
  <circle cx="-80.0" cy="401.1" r="7.5" fill="#6f909e" fill-opacity="0.9" stroke="rgba(230,240,244,0.18)"/>
  <circle cx="-57.3" cy="405.0" r="7.5" fill="#6f909e" fill-opacity="0.9" stroke="rgba(230,240,244,0.18)"/>
  <circle cx="-34.5" cy="407.5" r="7.5" fill="#6f909e" fill-opacity="0.9" stroke="rgba(230,240,244,0.18)"/>
  <circle cx="-11.5" cy="408.8" r="7.5" fill="#6f909e" fill-opacity="0.9" stroke="rgba(230,240,244,0.18)"/>
  <circle cx="11.5" cy="408.8" r="7.5" fill="#6f909e" fill-opacity="0.9" stroke="rgba(230,240,244,0.18)"/>
  <circle cx="34.5" cy="407.5" r="7.5" fill="#6f909e" fill-opacity="0.9" stroke="rgba(230,240,244,0.18)"/>
  <circle cx="57.3" cy="405.0" r="7.5" fill="#6f909e" fill-opacity="0.9" stroke="rgba(230,240,244,0.18)"/>
  <circle cx="80.0" cy="401.1" r="7.5" fill="#6f909e" fill-opacity="0.9" stroke="rgba(230,240,244,0.18)"/>
  <circle cx="102.4" cy="396.0" r="7.5" fill="#6f909e" fill-opacity="0.9" stroke="rgba(230,240,244,0.18)"/>
  <circle cx="124.5" cy="389.6" r="7.5" fill="#6f909e" fill-opacity="0.9" stroke="rgba(230,240,244,0.18)"/>
  <circle cx="146.2" cy="382.0" r="7.5" fill="#6f909e" fill-opacity="0.9" stroke="rgba(230,240,244,0.18)"/>
  <circle cx="167.4" cy="373.2" r="7.5" fill="#6f909e" fill-opacity="0.9" stroke="rgba(230,240,244,0.18)"/>
  <circle cx="188.1" cy="363.2" r="7.5" fill="#6f909e" fill-opacity="0.9" stroke="rgba(230,240,244,0.18)"/>
  <circle cx="-210.3" cy="405.8" r="7.5" fill="#6f909e" fill-opacity="0.9" stroke="rgba(230,240,244,0.18)"/>
  <circle cx="-189.6" cy="415.8" r="7.5" fill="#6f909e" fill-opacity="0.9" stroke="rgba(230,240,244,0.18)"/>
  <circle cx="-168.4" cy="424.8" r="7.5" fill="#6f909e" fill-opacity="0.9" stroke="rgba(230,240,244,0.18)"/>
  <circle cx="-146.8" cy="432.8" r="7.5" fill="#6f909e" fill-opacity="0.9" stroke="rgba(230,240,244,0.18)"/>
  <circle cx="-124.9" cy="439.6" r="7.5" fill="#6f909e" fill-opacity="0.9" stroke="rgba(230,240,244,0.18)"/>
  <circle cx="-102.6" cy="445.3" r="7.5" fill="#6f909e" fill-opacity="0.9" stroke="rgba(230,240,244,0.18)"/>
  <circle cx="-80.1" cy="449.9" r="7.5" fill="#6f909e" fill-opacity="0.9" stroke="rgba(230,240,244,0.18)"/>
  <circle cx="-57.3" cy="453.4" r="7.0" fill="rgba(230,162,58,0.14)" stroke="#e6a23a" stroke-width="2.3"/>
  <circle cx="-34.5" cy="455.7" r="7.5" fill="#6f909e" fill-opacity="0.9" stroke="rgba(230,240,244,0.18)"/>
  <circle cx="-11.5" cy="456.9" r="7.5" fill="#6f909e" fill-opacity="0.9" stroke="rgba(230,240,244,0.18)"/>
  <circle cx="11.5" cy="456.9" r="7.5" fill="#6f909e" fill-opacity="0.9" stroke="rgba(230,240,244,0.18)"/>
  <circle cx="34.5" cy="455.7" r="7.5" fill="#6f909e" fill-opacity="0.9" stroke="rgba(230,240,244,0.18)"/>
  <circle cx="57.3" cy="453.4" r="7.5" fill="#6f909e" fill-opacity="0.9" stroke="rgba(230,240,244,0.18)"/>
  <circle cx="80.1" cy="449.9" r="7.5" fill="#6f909e" fill-opacity="0.9" stroke="rgba(230,240,244,0.18)"/>
  <circle cx="102.6" cy="445.3" r="7.5" fill="#6f909e" fill-opacity="0.9" stroke="rgba(230,240,244,0.18)"/>
  <circle cx="124.9" cy="439.6" r="7.5" fill="#6f909e" fill-opacity="0.9" stroke="rgba(230,240,244,0.18)"/>
  <circle cx="146.8" cy="432.8" r="7.5" fill="#6f909e" fill-opacity="0.9" stroke="rgba(230,240,244,0.18)"/>
  <circle cx="168.4" cy="424.8" r="7.5" fill="#6f909e" fill-opacity="0.9" stroke="rgba(230,240,244,0.18)"/>
  <circle cx="189.6" cy="415.8" r="7.5" fill="#6f909e" fill-opacity="0.9" stroke="rgba(230,240,244,0.18)"/>
  <circle cx="210.3" cy="405.8" r="7.5" fill="#6f909e" fill-opacity="0.9" stroke="rgba(230,240,244,0.18)"/>
  <circle cx="-211.1" cy="434.4" r="7.5" fill="#6f909e" fill-opacity="0.9" stroke="rgba(230,240,244,0.18)"/>
  <circle cx="-190.2" cy="444.0" r="7.5" fill="#6f909e" fill-opacity="0.9" stroke="rgba(230,240,244,0.18)"/>
  <circle cx="-168.9" cy="452.5" r="7.5" fill="#6f909e" fill-opacity="0.9" stroke="rgba(230,240,244,0.18)"/>
  <circle cx="-147.1" cy="460.0" r="7.5" fill="#6f909e" fill-opacity="0.9" stroke="rgba(230,240,244,0.18)"/>
  <circle cx="-125.1" cy="466.5" r="7.5" fill="#6f909e" fill-opacity="0.9" stroke="rgba(230,240,244,0.18)"/>
  <circle cx="-102.7" cy="472.0" r="7.5" fill="#6f909e" fill-opacity="0.9" stroke="rgba(230,240,244,0.18)"/>
  <circle cx="-80.1" cy="476.3" r="7.5" fill="#6f909e" fill-opacity="0.9" stroke="rgba(230,240,244,0.18)"/>
  <circle cx="-57.4" cy="479.6" r="7.5" fill="#6f909e" fill-opacity="0.9" stroke="rgba(230,240,244,0.18)"/>
  <circle cx="-34.5" cy="481.8" r="7.5" fill="#6f909e" fill-opacity="0.9" stroke="rgba(230,240,244,0.18)"/>
  <circle cx="-11.5" cy="482.9" r="7.5" fill="#6f909e" fill-opacity="0.9" stroke="rgba(230,240,244,0.18)"/>
  <circle cx="11.5" cy="482.9" r="7.5" fill="#6f909e" fill-opacity="0.9" stroke="rgba(230,240,244,0.18)"/>
  <circle cx="34.5" cy="481.8" r="7.5" fill="#6f909e" fill-opacity="0.9" stroke="rgba(230,240,244,0.18)"/>
  <circle cx="57.4" cy="479.6" r="7.5" fill="#6f909e" fill-opacity="0.9" stroke="rgba(230,240,244,0.18)"/>
  <circle cx="80.1" cy="476.3" r="7.5" fill="#6f909e" fill-opacity="0.9" stroke="rgba(230,240,244,0.18)"/>
  <circle cx="102.7" cy="472.0" r="7.5" fill="#6f909e" fill-opacity="0.9" stroke="rgba(230,240,244,0.18)"/>
  <circle cx="125.1" cy="466.5" r="7.5" fill="#6f909e" fill-opacity="0.9" stroke="rgba(230,240,244,0.18)"/>
  <circle cx="147.1" cy="460.0" r="7.5" fill="#6f909e" fill-opacity="0.9" stroke="rgba(230,240,244,0.18)"/>
  <circle cx="168.9" cy="452.5" r="7.5" fill="#6f909e" fill-opacity="0.9" stroke="rgba(230,240,244,0.18)"/>
  <circle cx="190.2" cy="444.0" r="7.5" fill="#6f909e" fill-opacity="0.9" stroke="rgba(230,240,244,0.18)"/>
  <circle cx="211.1" cy="434.4" r="7.5" fill="#6f909e" fill-opacity="0.9" stroke="rgba(230,240,244,0.18)"/>
  <circle cx="-211.9" cy="462.8" r="7.5" fill="#6f909e" fill-opacity="0.9" stroke="rgba(230,240,244,0.18)"/>
  <circle cx="-190.7" cy="471.9" r="7.5" fill="#6f909e" fill-opacity="0.9" stroke="rgba(230,240,244,0.18)"/>
  <circle cx="-169.2" cy="480.0" r="7.5" fill="#6f909e" fill-opacity="0.9" stroke="rgba(230,240,244,0.18)"/>
  <circle cx="-147.4" cy="487.2" r="7.5" fill="#6f909e" fill-opacity="0.9" stroke="rgba(230,240,244,0.18)"/>
  <circle cx="-125.2" cy="493.4" r="7.5" fill="#6f909e" fill-opacity="0.9" stroke="rgba(230,240,244,0.18)"/>
  <circle cx="-102.8" cy="498.5" r="7.5" fill="#6f909e" fill-opacity="0.9" stroke="rgba(230,240,244,0.18)"/>
  <circle cx="-80.2" cy="502.6" r="7.5" fill="#6f909e" fill-opacity="0.9" stroke="rgba(230,240,244,0.18)"/>
  <circle cx="-57.4" cy="505.8" r="7.5" fill="#6f909e" fill-opacity="0.9" stroke="rgba(230,240,244,0.18)"/>
  <circle cx="-34.5" cy="507.8" r="7.5" fill="#6f909e" fill-opacity="0.9" stroke="rgba(230,240,244,0.18)"/>
  <circle cx="-11.5" cy="508.9" r="7.5" fill="#6f909e" fill-opacity="0.9" stroke="rgba(230,240,244,0.18)"/>
  <circle cx="11.5" cy="508.9" r="7.5" fill="#6f909e" fill-opacity="0.9" stroke="rgba(230,240,244,0.18)"/>
  <circle cx="34.5" cy="507.8" r="7.5" fill="#6f909e" fill-opacity="0.9" stroke="rgba(230,240,244,0.18)"/>
  <circle cx="57.4" cy="505.8" r="7.5" fill="#6f909e" fill-opacity="0.9" stroke="rgba(230,240,244,0.18)"/>
  <circle cx="80.2" cy="502.6" r="7.5" fill="#6f909e" fill-opacity="0.9" stroke="rgba(230,240,244,0.18)"/>
  <circle cx="102.8" cy="498.5" r="7.5" fill="#6f909e" fill-opacity="0.9" stroke="rgba(230,240,244,0.18)"/>
  <circle cx="125.2" cy="493.4" r="7.5" fill="#6f909e" fill-opacity="0.9" stroke="rgba(230,240,244,0.18)"/>
  <circle cx="147.4" cy="487.2" r="7.5" fill="#6f909e" fill-opacity="0.9" stroke="rgba(230,240,244,0.18)"/>
  <circle cx="169.2" cy="480.0" r="7.5" fill="#6f909e" fill-opacity="0.9" stroke="rgba(230,240,244,0.18)"/>
  <circle cx="190.7" cy="471.9" r="7.5" fill="#6f909e" fill-opacity="0.9" stroke="rgba(230,240,244,0.18)"/>
  <circle cx="211.9" cy="462.8" r="7.5" fill="#6f909e" fill-opacity="0.9" stroke="rgba(230,240,244,0.18)"/>
  <circle cx="-212.5" cy="491.0" r="7.5" fill="#6f909e" fill-opacity="0.9" stroke="rgba(230,240,244,0.18)"/>
  <circle cx="-191.2" cy="499.7" r="7.5" fill="#6f909e" fill-opacity="0.9" stroke="rgba(230,240,244,0.18)"/>
  <circle cx="-169.5" cy="507.4" r="7.5" fill="#6f909e" fill-opacity="0.9" stroke="rgba(230,240,244,0.18)"/>
  <circle cx="-147.6" cy="514.2" r="7.5" fill="#6f909e" fill-opacity="0.9" stroke="rgba(230,240,244,0.18)"/>
  <circle cx="-125.3" cy="520.1" r="7.5" fill="#6f909e" fill-opacity="0.9" stroke="rgba(230,240,244,0.18)"/>
  <circle cx="-102.9" cy="525.0" r="7.5" fill="#6f909e" fill-opacity="0.9" stroke="rgba(230,240,244,0.18)"/>
  <circle cx="-80.2" cy="529.0" r="7.5" fill="#6f909e" fill-opacity="0.9" stroke="rgba(230,240,244,0.18)"/>
  <circle cx="-57.4" cy="531.9" r="7.5" fill="#6f909e" fill-opacity="0.9" stroke="rgba(230,240,244,0.18)"/>
  <circle cx="-34.5" cy="533.9" r="7.5" fill="#6f909e" fill-opacity="0.9" stroke="rgba(230,240,244,0.18)"/>
  <circle cx="-11.5" cy="534.9" r="7.5" fill="#6f909e" fill-opacity="0.9" stroke="rgba(230,240,244,0.18)"/>
  <circle cx="11.5" cy="534.9" r="7.5" fill="#6f909e" fill-opacity="0.9" stroke="rgba(230,240,244,0.18)"/>
  <circle cx="34.5" cy="533.9" r="7.5" fill="#6f909e" fill-opacity="0.9" stroke="rgba(230,240,244,0.18)"/>
  <circle cx="57.4" cy="531.9" r="7.0" fill="rgba(230,162,58,0.14)" stroke="#e6a23a" stroke-width="2.3"/>
  <circle cx="80.2" cy="529.0" r="7.5" fill="#6f909e" fill-opacity="0.9" stroke="rgba(230,240,244,0.18)"/>
  <circle cx="102.9" cy="525.0" r="7.5" fill="#6f909e" fill-opacity="0.9" stroke="rgba(230,240,244,0.18)"/>
  <circle cx="125.3" cy="520.1" r="7.5" fill="#6f909e" fill-opacity="0.9" stroke="rgba(230,240,244,0.18)"/>
  <circle cx="147.6" cy="514.2" r="7.5" fill="#6f909e" fill-opacity="0.9" stroke="rgba(230,240,244,0.18)"/>
  <circle cx="169.5" cy="507.4" r="7.5" fill="#6f909e" fill-opacity="0.9" stroke="rgba(230,240,244,0.18)"/>
  <circle cx="191.2" cy="499.7" r="7.5" fill="#6f909e" fill-opacity="0.9" stroke="rgba(230,240,244,0.18)"/>
  <circle cx="212.5" cy="491.0" r="7.5" fill="#6f909e" fill-opacity="0.9" stroke="rgba(230,240,244,0.18)"/>
  <circle cx="-213.0" cy="519.0" r="7.5" fill="#6f909e" fill-opacity="0.9" stroke="rgba(230,240,244,0.18)"/>
  <circle cx="-191.6" cy="527.3" r="7.5" fill="#6f909e" fill-opacity="0.9" stroke="rgba(230,240,244,0.18)"/>
  <circle cx="-169.8" cy="534.7" r="7.5" fill="#6f909e" fill-opacity="0.9" stroke="rgba(230,240,244,0.18)"/>
  <circle cx="-147.7" cy="541.2" r="7.5" fill="#6f909e" fill-opacity="0.9" stroke="rgba(230,240,244,0.18)"/>
  <circle cx="-125.4" cy="546.8" r="7.5" fill="#6f909e" fill-opacity="0.9" stroke="rgba(230,240,244,0.18)"/>
  <circle cx="-102.9" cy="551.5" r="7.5" fill="#6f909e" fill-opacity="0.9" stroke="rgba(230,240,244,0.18)"/>
  <circle cx="-80.2" cy="555.2" r="7.5" fill="#6f909e" fill-opacity="0.9" stroke="rgba(230,240,244,0.18)"/>
  <circle cx="-57.4" cy="558.1" r="7.5" fill="#6f909e" fill-opacity="0.9" stroke="rgba(230,240,244,0.18)"/>
  <circle cx="-34.5" cy="559.9" r="7.5" fill="#6f909e" fill-opacity="0.9" stroke="rgba(230,240,244,0.18)"/>
  <circle cx="-11.5" cy="560.9" r="7.5" fill="#6f909e" fill-opacity="0.9" stroke="rgba(230,240,244,0.18)"/>
  <circle cx="11.5" cy="560.9" r="7.5" fill="#6f909e" fill-opacity="0.9" stroke="rgba(230,240,244,0.18)"/>
  <circle cx="34.5" cy="559.9" r="7.5" fill="#6f909e" fill-opacity="0.9" stroke="rgba(230,240,244,0.18)"/>
  <circle cx="57.4" cy="558.1" r="7.5" fill="#6f909e" fill-opacity="0.9" stroke="rgba(230,240,244,0.18)"/>
  <circle cx="80.2" cy="555.2" r="7.5" fill="#6f909e" fill-opacity="0.9" stroke="rgba(230,240,244,0.18)"/>
  <circle cx="102.9" cy="551.5" r="7.5" fill="#6f909e" fill-opacity="0.9" stroke="rgba(230,240,244,0.18)"/>
  <circle cx="125.4" cy="546.8" r="7.5" fill="#6f909e" fill-opacity="0.9" stroke="rgba(230,240,244,0.18)"/>
  <circle cx="147.7" cy="541.2" r="7.5" fill="#6f909e" fill-opacity="0.9" stroke="rgba(230,240,244,0.18)"/>
  <circle cx="169.8" cy="534.7" r="7.5" fill="#6f909e" fill-opacity="0.9" stroke="rgba(230,240,244,0.18)"/>
  <circle cx="191.6" cy="527.3" r="7.5" fill="#6f909e" fill-opacity="0.9" stroke="rgba(230,240,244,0.18)"/>
  <circle cx="213.0" cy="519.0" r="7.5" fill="#6f909e" fill-opacity="0.9" stroke="rgba(230,240,244,0.18)"/>
  <circle cx="-235.2" cy="561.7" r="7.5" fill="#6f909e" fill-opacity="0.9" stroke="rgba(230,240,244,0.18)"/>
  <circle cx="-213.8" cy="570.2" r="7.5" fill="#6f909e" fill-opacity="0.9" stroke="rgba(230,240,244,0.18)"/>
  <circle cx="-192.2" cy="577.9" r="7.5" fill="#6f909e" fill-opacity="0.9" stroke="rgba(230,240,244,0.18)"/>
  <circle cx="-170.2" cy="584.7" r="7.5" fill="#6f909e" fill-opacity="0.9" stroke="rgba(230,240,244,0.18)"/>
  <circle cx="-148.0" cy="590.7" r="7.5" fill="#6f909e" fill-opacity="0.9" stroke="rgba(230,240,244,0.18)"/>
  <circle cx="-125.6" cy="595.9" r="7.5" fill="#6f909e" fill-opacity="0.9" stroke="rgba(230,240,244,0.18)"/>
  <circle cx="-103.0" cy="600.2" r="7.5" fill="#6f909e" fill-opacity="0.9" stroke="rgba(230,240,244,0.18)"/>
  <circle cx="-80.3" cy="603.7" r="7.5" fill="#6f909e" fill-opacity="0.9" stroke="rgba(230,240,244,0.18)"/>
  <circle cx="-57.4" cy="606.3" r="7.5" fill="#6f909e" fill-opacity="0.9" stroke="rgba(230,240,244,0.18)"/>
  <circle cx="-34.5" cy="608.0" r="7.5" fill="#6f909e" fill-opacity="0.9" stroke="rgba(230,240,244,0.18)"/>
  <circle cx="-11.5" cy="608.9" r="7.5" fill="#6f909e" fill-opacity="0.9" stroke="rgba(230,240,244,0.18)"/>
  <circle cx="11.5" cy="608.9" r="7.5" fill="#6f909e" fill-opacity="0.9" stroke="rgba(230,240,244,0.18)"/>
  <circle cx="34.5" cy="608.0" r="7.5" fill="#6f909e" fill-opacity="0.9" stroke="rgba(230,240,244,0.18)"/>
  <circle cx="57.4" cy="606.3" r="7.5" fill="#6f909e" fill-opacity="0.9" stroke="rgba(230,240,244,0.18)"/>
  <circle cx="80.3" cy="603.7" r="7.5" fill="#6f909e" fill-opacity="0.9" stroke="rgba(230,240,244,0.18)"/>
  <circle cx="103.0" cy="600.2" r="7.5" fill="#6f909e" fill-opacity="0.9" stroke="rgba(230,240,244,0.18)"/>
  <circle cx="125.6" cy="595.9" r="7.5" fill="#6f909e" fill-opacity="0.9" stroke="rgba(230,240,244,0.18)"/>
  <circle cx="148.0" cy="590.7" r="7.5" fill="#6f909e" fill-opacity="0.9" stroke="rgba(230,240,244,0.18)"/>
  <circle cx="170.2" cy="584.7" r="7.5" fill="#6f909e" fill-opacity="0.9" stroke="rgba(230,240,244,0.18)"/>
  <circle cx="192.2" cy="577.9" r="7.5" fill="#6f909e" fill-opacity="0.9" stroke="rgba(230,240,244,0.18)"/>
  <circle cx="213.8" cy="570.2" r="7.5" fill="#6f909e" fill-opacity="0.9" stroke="rgba(230,240,244,0.18)"/>
  <circle cx="235.2" cy="561.7" r="7.5" fill="#6f909e" fill-opacity="0.9" stroke="rgba(230,240,244,0.18)"/>
  <circle cx="-235.7" cy="589.6" r="7.5" fill="#6f909e" fill-opacity="0.9" stroke="rgba(230,240,244,0.18)"/>
  <circle cx="-214.2" cy="597.8" r="7.5" fill="#6f909e" fill-opacity="0.9" stroke="rgba(230,240,244,0.18)"/>
  <circle cx="-192.4" cy="605.1" r="7.5" fill="#6f909e" fill-opacity="0.9" stroke="rgba(230,240,244,0.18)"/>
  <circle cx="-170.4" cy="611.7" r="7.5" fill="#6f909e" fill-opacity="0.9" stroke="rgba(230,240,244,0.18)"/>
  <circle cx="-148.1" cy="617.5" r="7.5" fill="#6f909e" fill-opacity="0.9" stroke="rgba(230,240,244,0.18)"/>
  <circle cx="-125.7" cy="622.4" r="7.0" fill="rgba(230,162,58,0.14)" stroke="#e6a23a" stroke-width="2.3"/>
  <circle cx="-103.0" cy="626.6" r="7.5" fill="#6f909e" fill-opacity="0.9" stroke="rgba(230,240,244,0.18)"/>
  <circle cx="-80.3" cy="629.9" r="7.5" fill="#6f909e" fill-opacity="0.9" stroke="rgba(230,240,244,0.18)"/>
  <circle cx="-57.4" cy="632.4" r="7.5" fill="#6f909e" fill-opacity="0.9" stroke="rgba(230,240,244,0.18)"/>
  <circle cx="-34.5" cy="634.1" r="7.5" fill="#6f909e" fill-opacity="0.9" stroke="rgba(230,240,244,0.18)"/>
  <circle cx="-11.5" cy="634.9" r="7.5" fill="#6f909e" fill-opacity="0.9" stroke="rgba(230,240,244,0.18)"/>
  <circle cx="11.5" cy="634.9" r="7.5" fill="#6f909e" fill-opacity="0.9" stroke="rgba(230,240,244,0.18)"/>
  <circle cx="34.5" cy="634.1" r="7.5" fill="#6f909e" fill-opacity="0.9" stroke="rgba(230,240,244,0.18)"/>
  <circle cx="57.4" cy="632.4" r="7.5" fill="#6f909e" fill-opacity="0.9" stroke="rgba(230,240,244,0.18)"/>
  <circle cx="80.3" cy="629.9" r="7.5" fill="#6f909e" fill-opacity="0.9" stroke="rgba(230,240,244,0.18)"/>
  <circle cx="103.0" cy="626.6" r="7.5" fill="#6f909e" fill-opacity="0.9" stroke="rgba(230,240,244,0.18)"/>
  <circle cx="125.7" cy="622.4" r="7.5" fill="#6f909e" fill-opacity="0.9" stroke="rgba(230,240,244,0.18)"/>
  <circle cx="148.1" cy="617.5" r="7.5" fill="#6f909e" fill-opacity="0.9" stroke="rgba(230,240,244,0.18)"/>
  <circle cx="170.4" cy="611.7" r="7.5" fill="#6f909e" fill-opacity="0.9" stroke="rgba(230,240,244,0.18)"/>
  <circle cx="192.4" cy="605.1" r="7.5" fill="#6f909e" fill-opacity="0.9" stroke="rgba(230,240,244,0.18)"/>
  <circle cx="214.2" cy="597.8" r="7.5" fill="#6f909e" fill-opacity="0.9" stroke="rgba(230,240,244,0.18)"/>
  <circle cx="235.7" cy="589.6" r="7.5" fill="#6f909e" fill-opacity="0.9" stroke="rgba(230,240,244,0.18)"/>
  <circle cx="-236.2" cy="617.4" r="7.5" fill="#6f909e" fill-opacity="0.9" stroke="rgba(230,240,244,0.18)"/>
  <circle cx="-214.5" cy="625.2" r="7.5" fill="#6f909e" fill-opacity="0.9" stroke="rgba(230,240,244,0.18)"/>
  <circle cx="-192.7" cy="632.3" r="7.5" fill="#6f909e" fill-opacity="0.9" stroke="rgba(230,240,244,0.18)"/>
  <circle cx="-170.5" cy="638.6" r="7.5" fill="#6f909e" fill-opacity="0.9" stroke="rgba(230,240,244,0.18)"/>
  <circle cx="-148.2" cy="644.2" r="7.5" fill="#6f909e" fill-opacity="0.9" stroke="rgba(230,240,244,0.18)"/>
  <circle cx="-125.7" cy="648.9" r="7.5" fill="#6f909e" fill-opacity="0.9" stroke="rgba(230,240,244,0.18)"/>
  <circle cx="-103.1" cy="652.9" r="7.5" fill="#6f909e" fill-opacity="0.9" stroke="rgba(230,240,244,0.18)"/>
  <circle cx="-80.3" cy="656.1" r="7.5" fill="#6f909e" fill-opacity="0.9" stroke="rgba(230,240,244,0.18)"/>
  <circle cx="-57.4" cy="658.5" r="7.5" fill="#6f909e" fill-opacity="0.9" stroke="rgba(230,240,244,0.18)"/>
  <circle cx="-34.5" cy="660.1" r="7.5" fill="#6f909e" fill-opacity="0.9" stroke="rgba(230,240,244,0.18)"/>
  <circle cx="-11.5" cy="660.9" r="7.5" fill="#6f909e" fill-opacity="0.9" stroke="rgba(230,240,244,0.18)"/>
  <circle cx="11.5" cy="660.9" r="7.5" fill="#6f909e" fill-opacity="0.9" stroke="rgba(230,240,244,0.18)"/>
  <circle cx="34.5" cy="660.1" r="7.5" fill="#6f909e" fill-opacity="0.9" stroke="rgba(230,240,244,0.18)"/>
  <circle cx="57.4" cy="658.5" r="7.5" fill="#6f909e" fill-opacity="0.9" stroke="rgba(230,240,244,0.18)"/>
  <circle cx="80.3" cy="656.1" r="7.5" fill="#6f909e" fill-opacity="0.9" stroke="rgba(230,240,244,0.18)"/>
  <circle cx="103.1" cy="652.9" r="7.5" fill="#6f909e" fill-opacity="0.9" stroke="rgba(230,240,244,0.18)"/>
  <circle cx="125.7" cy="648.9" r="7.5" fill="#6f909e" fill-opacity="0.9" stroke="rgba(230,240,244,0.18)"/>
  <circle cx="148.2" cy="644.2" r="7.5" fill="#6f909e" fill-opacity="0.9" stroke="rgba(230,240,244,0.18)"/>
  <circle cx="170.5" cy="638.6" r="7.5" fill="#6f909e" fill-opacity="0.9" stroke="rgba(230,240,244,0.18)"/>
  <circle cx="192.7" cy="632.3" r="7.5" fill="#6f909e" fill-opacity="0.9" stroke="rgba(230,240,244,0.18)"/>
  <circle cx="214.5" cy="625.2" r="7.5" fill="#6f909e" fill-opacity="0.9" stroke="rgba(230,240,244,0.18)"/>
  <circle cx="236.2" cy="617.4" r="7.5" fill="#6f909e" fill-opacity="0.9" stroke="rgba(230,240,244,0.18)"/>
  <circle cx="-236.6" cy="645.0" r="7.5" fill="#6f909e" fill-opacity="0.9" stroke="rgba(230,240,244,0.18)"/>
  <circle cx="-214.8" cy="652.5" r="7.0" fill="rgba(230,162,58,0.14)" stroke="#e6a23a" stroke-width="2.3"/>
  <circle cx="-192.9" cy="659.4" r="7.5" fill="#6f909e" fill-opacity="0.9" stroke="rgba(230,240,244,0.18)"/>
  <circle cx="-170.7" cy="665.5" r="7.5" fill="#6f909e" fill-opacity="0.9" stroke="rgba(230,240,244,0.18)"/>
  <circle cx="-148.3" cy="670.8" r="7.5" fill="#6f909e" fill-opacity="0.9" stroke="rgba(230,240,244,0.18)"/>
  <circle cx="-125.8" cy="675.4" r="7.5" fill="#6f909e" fill-opacity="0.9" stroke="rgba(230,240,244,0.18)"/>
  <circle cx="-103.1" cy="679.2" r="7.5" fill="#6f909e" fill-opacity="0.9" stroke="rgba(230,240,244,0.18)"/>
  <circle cx="-80.3" cy="682.3" r="7.5" fill="#6f909e" fill-opacity="0.9" stroke="rgba(230,240,244,0.18)"/>
  <circle cx="-57.4" cy="684.6" r="7.5" fill="#6f909e" fill-opacity="0.9" stroke="rgba(230,240,244,0.18)"/>
  <circle cx="-34.5" cy="686.1" r="7.5" fill="#6f909e" fill-opacity="0.9" stroke="rgba(230,240,244,0.18)"/>
  <circle cx="-11.5" cy="686.9" r="7.5" fill="#6f909e" fill-opacity="0.9" stroke="rgba(230,240,244,0.18)"/>
  <circle cx="11.5" cy="686.9" r="7.5" fill="#6f909e" fill-opacity="0.9" stroke="rgba(230,240,244,0.18)"/>
  <circle cx="34.5" cy="686.1" r="7.5" fill="#6f909e" fill-opacity="0.9" stroke="rgba(230,240,244,0.18)"/>
  <circle cx="57.4" cy="684.6" r="7.5" fill="#6f909e" fill-opacity="0.9" stroke="rgba(230,240,244,0.18)"/>
  <circle cx="80.3" cy="682.3" r="7.5" fill="#6f909e" fill-opacity="0.9" stroke="rgba(230,240,244,0.18)"/>
  <circle cx="103.1" cy="679.2" r="7.5" fill="#6f909e" fill-opacity="0.9" stroke="rgba(230,240,244,0.18)"/>
  <circle cx="125.8" cy="675.4" r="7.5" fill="#6f909e" fill-opacity="0.9" stroke="rgba(230,240,244,0.18)"/>
  <circle cx="148.3" cy="670.8" r="7.5" fill="#6f909e" fill-opacity="0.9" stroke="rgba(230,240,244,0.18)"/>
  <circle cx="170.7" cy="665.5" r="7.5" fill="#6f909e" fill-opacity="0.9" stroke="rgba(230,240,244,0.18)"/>
  <circle cx="192.9" cy="659.4" r="7.5" fill="#6f909e" fill-opacity="0.9" stroke="rgba(230,240,244,0.18)"/>
  <circle cx="214.8" cy="652.5" r="7.5" fill="#6f909e" fill-opacity="0.9" stroke="rgba(230,240,244,0.18)"/>
  <circle cx="236.6" cy="645.0" r="7.5" fill="#6f909e" fill-opacity="0.9" stroke="rgba(230,240,244,0.18)"/>
</svg>
